<svg xmlns="http://www.w3.org/2000/svg" viewBox="0 0 480 512">
  <path d="M107 215L1 371c-3 5 0 11 6 12l208 22-108-190zM7 315l76-122-77-46c-3-2-6 0-6 4v162c0 4 5 6 7 2zm11 109l195 87c5 3 11-1 11-7v-66L20 416c-4 0-6 6-2 8zm81-258l80-143c5-7-3-15-10-11L18 110c-3 2-3 6 0 7l81 49zm141 10h109L254 8c-3-5-9-8-14-8s-10 3-14 8l-95 168h109zm234-29l-77 46 76 122c2 4 7 2 7-2V151c0-4-3-5-6-4zm-93 19l81-49c3-1 3-5 0-7L311 12c-7-4-15 4-10 11l80 143zm79 250l-204 22v66c0 6 6 10 11 7l195-87c4-2 2-8-2-8zm-87-201L265 405l208-22c6-1 9-7 6-12L373 215zm-133-7H140l100 176 100-176H240z"/>
</svg>